Coordinates
version=1
nRows=32
nColumns=22
inDegrees=yes

Units are S.I. units (second, meters, Newtons, ...)
If the header above contains a line with 'inDegrees', this indicates whether rotational values are in degrees (yes) or radians (no).

endheader
time	pelvis_tilt	pelvis_list	pelvis_rotation	pelvis_tx	pelvis_ty	pelvis_tz	hip_flexion_r	hip_adduction_r	hip_rotation_r	knee_angle_r	ankle_angle_r	subtalar_angle_r	hip_flexion_l	hip_adduction_l	hip_rotation_l	knee_angle_l	ankle_angle_l	subtalar_angle_l	lumbar_extension	lumbar_bending	lumbar_rotation
      4.31000000	     -1.65742976	      2.12052306	    147.20064461	      0.34794353	      1.00196143	     -0.46826037	     17.41472614	     -2.16954233	      3.64680571	    -59.08472636	      4.60006702	      7.85138648	      5.79481895	      7.34765137	     -7.47280040	    -19.42910337	     13.36753895	     -9.16923260	    -14.70162942	      0.53545227	      2.24662410
      4.32000000	     -1.54005683	      1.98033356	    148.02692833	      0.34315001	      1.00197736	     -0.46988674	     18.13083492	     -2.14319511	      4.37430769	    -57.71383288	      5.19041416	      7.09199787	      5.43405449	      7.49866303	     -6.72109969	    -19.02448216	     13.39142629	     -9.17913096	    -14.58059735	      0.56910163	      1.95309504
      4.33000000	     -1.38449247	      1.83407201	    148.82966855	      0.33847411	      1.00188580	     -0.47153573	     18.85513242	     -2.10068498	      5.08967974	    -56.21902219	      5.76515602	      6.37415443	      5.14314226	      7.61908641	     -5.98219357	    -18.67190416	     13.43894649	     -9.20054135	    -14.43552096	      0.59963753	      1.69758662
      4.34000000	     -1.20369856	      1.69190471	    149.61400724	      0.33386436	      1.00170855	     -0.47319657	     19.56868551	     -2.03975045	      5.79150821	    -54.61354485	      6.30835338	      5.69822762	      4.90830167	      7.71152759	     -5.25582098	    -18.38288124	     13.51599113	     -9.23199113	    -14.27937761	      0.63742071	      1.47440215
      4.35000000	     -1.01833674	      1.56646796	    150.39805244	      0.32928346	      1.00148194	     -0.47486612	     20.23969234	     -1.96653091	      6.45768524	    -52.90649757	      6.86820730	      5.23731780	      4.70590637	      7.77774416	     -4.53725321	    -18.16568957	     13.63867471	     -9.24031208	    -14.13701242	      0.68430492	      1.25432494
      4.36000000	     -0.79313377	      1.44354997	    151.16178432	      0.32473002	      1.00117439	     -0.47660013	     20.92053688	     -1.86361080	      7.09192088	    -51.11506348	      7.24470614	      4.58859039	      4.55649827	      7.81491128	     -3.80818442	    -17.97998439	     13.75333586	     -9.28740950	    -13.95595806	      0.73679596	      1.08972851
      4.37000000	     -0.59446415	      1.36718862	    151.93249314	      0.32018184	      1.00088547	     -0.47836956	     21.51225292	     -1.73117940	      7.68803329	    -49.24746422	      7.66931789	      4.27125212	      4.39928743	      7.81406596	     -3.08133848	    -17.88015856	     13.92758109	     -9.28757919	    -13.83516954	      0.80908937	      0.92618682
      4.38000000	     -0.38563238	      1.30000451	    152.69382720	      0.31556845	      1.00057104	     -0.48017969	     22.07932561	     -1.58578830	      8.23808822	    -47.32065790	      7.93297179	      3.88919782	      4.24802855	      7.80002337	     -2.33869460	    -17.79017191	     14.08503774	     -9.30999785	    -13.69942006	      0.89281721	      0.78563827
      4.39000000	     -0.20281948	      1.27690204	    153.45486047	      0.31093711	      1.00028774	     -0.48206323	     22.56537388	     -1.40407758	      8.75198929	    -45.34548741	      8.15605757	      3.69418183	      4.07805192	      7.74934828	     -1.59074957	    -17.76452295	     14.27230707	     -9.31981387	    -13.61472590	      0.98971307	      0.67361903
      4.40000000	     -0.03059659	      1.29177748	    154.21925326	      0.30626226	      1.00002011	     -0.48400752	     22.99252110	     -1.19026563	      9.21207713	    -43.33607375	      8.28800486	      3.64420674	      3.89501250	      7.66029567	     -0.83488082	    -17.77674338	     14.48092227	     -9.32053306	    -13.55555957	      1.10930186	      0.58010343
      4.41000000	      0.12279209	      1.33291577	    154.98151924	      0.30151903	      0.99978448	     -0.48599516	     23.35940051	     -0.96551517	      9.60101202	    -41.29617146	      8.30761166	      3.69693404	      3.67894072	      7.55060159	     -0.07288340	    -17.79088426	     14.68508147	     -9.33463952	    -13.52113845	      1.24098827	      0.49719452
      4.42000000	      0.25744982	      1.40062373	    155.73642826	      0.29673279	      0.99957294	     -0.48802118	     23.67132029	     -0.72798641	      9.91507887	    -39.23680823	      8.21987553	      3.88241925	      3.43943520	      7.41641066	      0.67839763	    -17.82049073	     14.89762703	     -9.35235742	    -13.51638313	      1.38591800	      0.43696005
      4.43000000	      0.34238684	      1.49312916	    156.47641892	      0.29187096	      0.99944139	     -0.49009925	     23.89523171	     -0.49549103	     10.14264470	    -37.15763947	      8.07970606	      4.30808881	      3.11897275	      7.27124698	      1.41540467	    -17.81160827	     15.09886006	     -9.39440125	    -13.56811917	      1.52797124	      0.39472308
      4.44000000	      0.42701338	      1.59141336	    157.19428768	      0.28700386	      0.99928505	     -0.49221092	     24.10193338	     -0.25899438	     10.28027649	    -35.07390262	      7.81186569	      4.84243455	      2.80977651	      7.10949810	      2.11662965	    -17.82407178	     15.31160873	     -9.40790171	    -13.62440663	      1.66862984	      0.39783165
      4.45000000	      0.49082269	      1.69035934	    157.88138209	      0.28210727	      0.99913608	     -0.49437415	     24.27123809	     -0.03023336	     10.32908763	    -32.98617059	      7.45043485	      5.53334343	      2.47082493	      6.94404407	      2.77784081	    -17.81635190	     15.51829389	     -9.40482049	    -13.70096284	      1.79541639	      0.43586340
      4.46000000	      0.53996647	      1.78580745	    158.54793637	      0.27717680	      0.99896938	     -0.49657919	     24.40559701	      0.18811799	     10.28936325	    -30.89586243	      7.05635437	      6.33409530	      2.11215436	      6.77487725	      3.39796153	    -17.79227511	     15.73345386	     -9.37929218	    -13.78871761	      1.90652433	      0.48827593
      4.47000000	      0.57429909	      1.87372670	    159.18290982	      0.27222565	      0.99878163	     -0.49884155	     24.50858727	      0.40057925	     10.19394258	    -28.81059040	      6.61635477	      7.29219481	      1.73067748	      6.60517929	      3.97103348	    -17.74383339	     15.94911928	     -9.33394854	    -13.88954642	      1.99772872	      0.57206599
      4.48000000	      0.59108197	      1.94517801	    159.78690574	      0.26725863	      0.99856501	     -0.50116689	     24.57686518	      0.60293057	     10.09553729	    -26.73559740	      6.16562824	      8.41562996	      1.33228125	      6.44579663	      4.50185581	    -17.68334219	     16.15874585	     -9.26793673	    -14.00243841	      2.05427316	      0.69210720
      4.49000000	      0.59667879	      1.99982975	    160.37020435	      0.26226456	      0.99830212	     -0.50354602	     24.61284576	      0.79505750	     10.02501574	    -24.68001044	      5.72673193	      9.67423368	      0.92287036	      6.29527097	      5.00322900	    -17.61186109	     16.36286130	     -9.18161345	    -14.12277733	      2.07961428	      0.84812669
      4.50000000	      0.59688700	      2.04352084	    160.95138294	      0.25718441	      0.99798653	     -0.50596813	     24.60504044	      0.97666728	     10.02237358	    -22.64112853	      5.33841786	     11.00297529	      0.49990230	      6.14476661	      5.47877480	    -17.52382096	     16.57439178	     -9.07883073	    -14.23614820	      2.08960154	      0.99328203
      4.51000000	      0.58981148	      2.07400111	    161.53571494	      0.25200489	      0.99761361	     -0.50841868	     24.55369168	      1.14029575	     10.13039605	    -20.63885176	      5.01120586	     12.34807515	      0.06518696	      5.99987308	      5.94512596	    -17.42721040	     16.78858200	     -8.96255710	    -14.34388469	      2.08216720	      1.13433405
      4.52000000	      0.57385739	      2.09257731	    162.13406255	      0.24670738	      0.99718068	     -0.51088224	     24.46179078	      1.27855968	     10.36978709	    -18.70503647	      4.75893841	     13.61021833	     -0.37991720	      5.86072427	      6.41033534	    -17.33037430	     17.00839490	     -8.83853588	    -14.44542246	      2.06076650	      1.26150454
      4.53000000	      0.55134601	      2.09910006	    162.75269846	      0.24128070	      0.99667564	     -0.51332112	     24.34132706	      1.38361385	     10.73667926	    -16.87585320	      4.57424899	     14.67343504	     -0.82400054	      5.73027553	      6.87555471	    -17.25160692	     17.23043881	     -8.71578401	    -14.53882056	      2.03329350	      1.36177913
      4.54000000	      0.52024583	      2.08245981	    163.38395222	      0.23573567	      0.99609502	     -0.51575551	     24.22266718	      1.44863510	     11.21326581	    -15.22899192	      4.46538470	     15.47820207	     -1.26753707	      5.62249485	      7.35484184	    -17.18780728	     17.44944733	     -8.59935483	    -14.62333901	      1.98052983	      1.45340598
      4.55000000	      0.48114659	      2.04310226	    164.03521533	      0.23004927	      0.99543569	     -0.51815097	     24.11829825	      1.46998448	     11.74049732	    -13.81134101	      4.43319224	     15.99201240	     -1.70668426	      5.53903804	      7.84595391	    -17.14830774	     17.67038934	     -8.49739767	    -14.69656478	      1.91079915	      1.52557241
      4.56000000	      0.43928019	      1.98342570	    164.71549222	      0.22423574	      0.99469511	     -0.52048202	     24.05085765	      1.45341794	     12.25110247	    -12.67874030	      4.45250017	     16.23711337	     -2.12724394	      5.47834457	      8.36209425	    -17.15212498	     17.88270254	     -8.41672551	    -14.75615365	      1.83175399	      1.57577493
      4.57000000	      0.37613103	      1.91332907	    165.41034966	      0.21824445	      0.99392195	     -0.52279159	     24.00134141	      1.41524569	     12.69573761	    -11.86463402	      4.53608793	     16.33580026	     -2.57127833	      5.42988105	      8.86825158	    -17.16538426	     18.10170947	     -8.35213078	    -14.81840524	      1.74522786	      1.59783206
      4.58000000	      0.31384984	      1.82963739	    166.12043269	      0.21212635	      0.99309450	     -0.52506139	     23.99983318	      1.36633438	     13.05968761	    -11.38668865	      4.61898721	     16.33767403	     -3.00589118	      5.39311239	      9.38289398	    -17.20197258	     18.32961544	     -8.30556366	    -14.86679655	      1.65432553	      1.60164707
      4.59000000	      0.23392360	      1.75377814	    166.84396955	      0.20585991	      0.99226732	     -0.52729526	     24.01212527	      1.32787356	     13.34293751	    -11.24312109	      4.67947429	     16.30363914	     -3.45325540	      5.34851686	      9.89800791	    -17.27032125	     18.54336657	     -8.26922440	    -14.92164607	      1.57992913	      1.59371674
      4.60000000	      0.14906981	      1.68863444	    167.57214184	      0.19945938	      0.99144304	     -0.52952603	     24.03182596	      1.31340932	     13.58081255	    -11.39100873	      4.67641872	     16.25801982	     -3.90477612	      5.28678591	     10.40430564	    -17.35995230	     18.75030926	     -8.24026589	    -14.97298522	      1.52271236	      1.57955368
      4.61000000	      0.06611818	      1.63278505	    168.29883775	      0.19294043	      0.99062037	     -0.53175087	     24.05895722	      1.32671666	     13.80869824	    -11.79896178	      4.57147376	     16.21466260	     -4.34842379	      5.20935354	     10.90787609	    -17.47804336	     18.95661218	     -8.21293510	    -15.01018309	      1.48337856	      1.57258648
      4.62000000	     -0.01699549	      1.59058742	    169.02456543	      0.18631613	      0.98981830	     -0.53396658	     24.08353671	      1.37131882	     14.02978281	    -12.42478088	      4.34315112	     16.16957245	     -4.78283721	      5.11204391	     11.40421677	    -17.63082925	     19.15102650	     -8.18342779	    -15.03817983	      1.46504976	      1.57856807
